<svg xmlns="http://www.w3.org/2000/svg" viewBox="0 0 291.3 68.5"><path d="M0 0h48v68.5H0V0z" fill="#004b8d"/><path d="M35.4 23.3H48v3.9H35.4v-3.9zm0 7.9H48v3.9H35.4v-3.9zm0 7.8H48v4H35.4v-4z" fill="#ee3124"/><path d="M34.8 56.5H18.2V43.2H6.5V22.5h12.6V10.1h16v3.4H22.5v12.4H9.9v13.8h11.8V53h13.2c-.1 0-.1 3.5-.1 3.5zm39.6-37.4c-.1-3-.2-6.1-.4-9.2.8.1 1.7.2 2.6.2s2 .1 3.2.1c1.2 0 2.2 0 3.2-.1.9-.1 1.8-.1 2.6-.2-.2 3.1-.3 6.1-.4 9.2-.1 3-.1 6.6-.1 10.5v9.7c0 3.9.1 7.4.1 10.5.1 3 .2 6 .4 9-.8-.1-1.7-.1-2.6-.1h-6.4c-.9 0-1.8 0-2.6.1.2-2.9.3-5.9.4-9 .1-3.1.1-6.5.1-10.5v-9.7c.1-4 0-7.4-.1-10.5m24-3.3c-.1-2.2-.2-4.2-.2-5.9 1.3.2 2.4.4 3.2.4.8 0 1.9-.1 3.2-.4 5.2 5.7 10.3 11.4 15.3 16.9s10.2 11.2 15.5 16.9v-20c0-2.2-.1-4.3-.1-6.2 0-1.9-.1-3.5-.1-4.9-.1-1.4-.1-2.3-.2-2.8 1.3.2 2.4.4 3.2.4s1.9-.1 3.2-.4c-.2 4.3-.4 8.2-.6 11.7-.1 3.5-.3 6.8-.4 9.8-.1 3.1-.2 6.1-.2 9.1v18.1c-.9-.1-1.9-.1-2.9-.1s-2 0-2.8.1c-9.8-11.4-20.1-22.8-31.1-34.3-.1 1.4-.1 2.8-.1 4.1v19.6c0 2 .1 3.7.1 5 .1 1.4.1 2.5.1 3.4s.1 1.6.1 2.1c-.6-.1-1.1-.1-1.7-.1h-1.6c-1.1 0-2.2 0-3.3.1.1-.4.2-1.7.4-4 .1-2.3.3-5.2.5-8.5s.3-7 .4-10.9.2-7.7.2-11.3c.1-2.9 0-5.7-.1-7.9m92.4 8.8c-.8-2.4-1.8-4.5-3.2-6.2s-3-3-4.9-3.9-4-1.4-6.3-1.4c-2.4 0-4.6.6-6.5 1.7s-3.5 2.7-4.9 4.7-2.3 4.3-3 7c-.7 2.7-1 5.5-1 8.6 0 3.8.4 7 1.2 9.6.8 2.6 1.9 4.7 3.3 6.3 1.4 1.6 3 2.7 4.8 3.4 1.8.7 3.7 1.1 5.7 1.1 2.1 0 4.2-.5 6.1-1.3 1.9-.9 3.6-2.3 5.1-4.1s2.6-4.2 3.5-7c.9-2.8 1.3-6.2 1.3-10.1-.1-3.2-.5-6-1.2-8.4m-39.5-.1c1.3-3.1 3.1-5.8 5.5-8.1s5.2-4.1 8.6-5.5c3.4-1.3 7.1-2 11.2-2 3.8 0 7.3.5 10.6 1.6s6.1 2.6 8.5 4.7c2.4 2.1 4.3 4.7 5.7 7.9s2.1 6.9 2.1 11.2c0 3.5-.7 6.9-2 10s-3.2 5.8-5.6 8.1c-2.4 2.3-5.2 4.1-8.6 5.4-3.3 1.3-7 1.9-10.9 1.9-3.7 0-7.3-.5-10.6-1.4-3.3-.9-6.2-2.4-8.6-4.5s-4.4-4.7-5.8-7.9-2.1-7-2.1-11.5c.1-3.5.7-6.8 2-9.9m86.1 2.9c2.3-6.1 4.4-11.9 6.2-17.5 1.2.2 2.2.4 3.1.4s1.9-.1 3.1-.4c-1.2 2.8-2.6 6.2-4.3 10.1-1.7 3.9-3.4 8.1-5.2 12.5-1.8 4.4-3.6 8.9-5.3 13.4s-3.3 8.8-4.7 12.8c-.9-.1-2-.1-3.1-.1s-2.2 0-3.1.1c-.7-1.9-1.6-4.2-2.6-6.9s-2.1-5.6-3.3-8.6c-1.2-3-2.4-6.1-3.7-9.3-1.3-3.2-2.5-6.2-3.7-9.2-1.2-3-2.3-5.7-3.3-8.3s-1.9-4.7-2.7-6.5c1.1.1 2.2.2 3.2.2s2.1.1 3.2.1 2.1 0 3.1-.1 2.1-.2 3.1-.2c.8 2.7 1.7 5.4 2.7 8.4 1 2.9 2.1 5.9 3.2 9s2.2 6.1 3.4 9.2c1.2 3.1 2.3 6.1 3.4 9.1 2.6-6.1 5-12.1 7.3-18.2m27.9-4.2c-1.2 2.8-2.4 5.6-3.5 8.4s-2.2 5.6-3.2 8.5h13c-1-2.9-2.1-5.7-3.1-8.5s-2.1-5.5-3.2-8.4m25.2 35.5c-1.1-.1-2.2-.1-3.2-.1h-6c-1 0-2 0-3 .1-.8-2.3-1.5-4.7-2.3-7.1-.8-2.4-1.7-4.8-2.6-7.2-1.5 0-3-.1-4.5-.1h-8.2c-1.2 0-2.5.1-3.7.1-.9 2.4-1.8 4.8-2.6 7.2-.8 2.4-1.5 4.8-2.2 7.1-.6-.1-1.1-.1-1.7-.1h-3.4c-.6 0-1.2 0-1.9.1.6-1.2 1.3-2.9 2.3-5.1 1.1-2.5 2.1-4.9 3.1-7.4 1.1-2.8 2.4-5.7 3.7-8.8 1.3-3.2 2.6-6.3 3.9-9.6 1.3-3.2 2.6-6.4 3.8-9.5 1.2-3.1 2.4-6 3.5-8.7.5.1.9.2 1.4.2s.9.1 1.4.1.9 0 1.4-.1c.4-.1.9-.1 1.4-.2 1.5 4 3.1 8.3 4.9 12.9 1.7 4.6 3.5 9.1 5.2 13.5 1.8 4.4 3.5 8.6 5.1 12.6 1.3 4 2.8 7.4 4.2 10.1m-9.1-44.6c0-2.8 2.2-5.1 5-5.1 2.7 0 4.9 2.3 4.9 5.1 0 2.9-2.2 5.1-4.9 5.1-2.8 0-5-2.2-5-5.1zm.9 0c0 2.4 1.8 4.3 4.1 4.3s4.1-1.9 4.1-4.3-1.8-4.3-4.1-4.3-4.1 2-4.1 4.3zm2.3-2.8h2.1c1 0 1.6.5 1.6 1.4 0 .8-.5 1.3-1.3 1.5.4.8.9 1.6 1.4 2.3l.3.5h-1.2l-1.5-2.7h-.3V17h-1.1v-5.7zm1.1 2.8c.9.1 1.4-.3 1.4-1.2 0-1-.5-1-.9-1h-.4v2.2z" fill="#fff"/></svg>