<svg version="1.1" id="Layer_1" xmlns="http://www.w3.org/2000/svg" x="0" y="0" viewBox="0 0 291.33 68.53" xml:space="preserve"><style>.st0{fill:#004b8d}</style><path class="st0" d="M0 0h48.03v68.53H0z"/><path d="M35.39 23.32h12.64v3.93H35.39zm0 7.86h12.64v3.93H35.39zm0 7.87h12.64v3.93H35.39z" fill="#ee3124"/><path fill="#fff" d="M34.83 56.46H18.21V43.22H6.46V22.5h12.61V10.11h16.04v3.45h-12.6v12.38H9.9v13.83h11.75v13.25h13.18v3.44z"/><path class="st0" d="M74.41 19.1c-.1-3.05-.24-6.12-.43-9.2.8.1 1.68.18 2.63.25s2.01.11 3.2.11c1.18 0 2.25-.03 3.2-.11.95-.07 1.82-.15 2.63-.25-.19 3.08-.33 6.14-.43 9.2-.1 3.05-.14 6.55-.14 10.48v9.66c0 3.93.05 7.42.14 10.48.1 3.05.24 6.05.43 8.99-.81-.1-1.68-.14-2.63-.14h-6.4c-.95 0-1.82.04-2.63.14.19-2.94.33-5.93.43-8.99.1-3.06.14-6.55.14-10.48v-9.66c.01-3.94-.04-7.43-.14-10.48m24.02-3.31c-.1-2.22-.17-4.19-.21-5.9 1.33.24 2.39.36 3.2.36.8 0 1.87-.12 3.2-.36 5.16 5.73 10.27 11.37 15.31 16.91 5.04 5.54 10.22 11.18 15.52 16.91V30.64c0-2.32-.01-4.61-.04-6.85-.02-2.25-.05-4.32-.07-6.22-.02-1.89-.07-3.53-.14-4.9-.07-1.37-.15-2.29-.25-2.77 1.33.24 2.39.36 3.2.36s1.87-.12 3.2-.36c-.24 4.31-.43 8.21-.57 11.69-.14 3.48-.26 6.76-.35 9.84-.1 3.08-.16 6.12-.18 9.13-.03 3.01-.03 6.22-.03 9.63v8.52c-.95-.1-1.92-.14-2.91-.14-1.04 0-1.97.04-2.77.14-9.76-11.37-20.1-22.8-31.05-34.31-.05 1.37-.08 2.75-.11 4.12-.02 1.37-.04 2.77-.04 4.19v8.24c0 2.84.01 5.26.04 7.25.02 1.99.06 3.67.11 5.04.05 1.38.09 2.5.14 3.38.05.88.09 1.57.14 2.1-.57-.1-1.14-.14-1.71-.14h-1.63c-1.09 0-2.18.04-3.27.14.09-.38.21-1.73.36-4.05.14-2.32.29-5.15.46-8.49.17-3.34.31-6.96.43-10.87.12-3.91.18-7.66.18-11.26-.02-3.28-.07-6.03-.16-8.26m92.36 8.78c-.76-2.44-1.81-4.51-3.16-6.22s-2.98-3.02-4.9-3.94c-1.92-.92-4.01-1.39-6.29-1.39-2.42 0-4.58.58-6.5 1.74-1.92 1.16-3.54 2.74-4.87 4.73-1.33 1.99-2.33 4.32-3.02 7-.69 2.67-1.03 5.53-1.03 8.56 0 3.79.4 6.99 1.21 9.59.81 2.61 1.89 4.7 3.27 6.29 1.37 1.59 2.96 2.74 4.76 3.44 1.8.71 3.69 1.07 5.68 1.07 2.13 0 4.17-.45 6.11-1.35 1.94-.9 3.63-2.27 5.08-4.12 1.45-1.85 2.6-4.19 3.48-7.04.88-2.84 1.31-6.2 1.31-10.09 0-3.08-.38-5.83-1.13-8.27m-39.47-.04c1.3-3.08 3.14-5.78 5.51-8.1 2.37-2.32 5.23-4.14 8.6-5.47 3.36-1.33 7.11-1.99 11.23-1.99 3.79 0 7.32.52 10.58 1.56 3.27 1.05 6.11 2.61 8.53 4.69 2.41 2.08 4.32 4.72 5.72 7.92 1.4 3.2 2.1 6.93 2.1 11.19 0 3.55-.68 6.87-2.03 9.95-1.35 3.08-3.22 5.77-5.61 8.06-2.39 2.3-5.25 4.09-8.56 5.36-3.32 1.28-6.96 1.92-10.94 1.92-3.74 0-7.26-.46-10.55-1.38-3.29-.93-6.16-2.42-8.6-4.48-2.44-2.06-4.37-4.68-5.79-7.88s-2.13-7.02-2.13-11.47c-.01-3.51.64-6.8 1.94-9.88m86.07 2.88c2.32-6.08 4.4-11.92 6.25-17.51 1.18.24 2.22.36 3.12.36.9 0 1.94-.12 3.12-.36-1.18 2.8-2.6 6.16-4.26 10.09-1.66 3.93-3.39 8.1-5.18 12.5-1.8 4.41-3.58 8.88-5.33 13.43-1.75 4.55-3.31 8.81-4.69 12.79-.95-.1-1.99-.14-3.13-.14s-2.18.05-3.12.14c-.71-1.89-1.58-4.19-2.59-6.89-1.02-2.7-2.11-5.56-3.27-8.6-1.16-3.03-2.38-6.13-3.66-9.31-1.28-3.17-2.51-6.24-3.69-9.2-1.19-2.96-2.3-5.72-3.34-8.28-1.04-2.56-1.94-4.73-2.7-6.54 1.09.09 2.17.18 3.23.25s2.12.11 3.16.11 2.08-.03 3.13-.11c1.04-.07 2.08-.16 3.12-.25.81 2.65 1.71 5.45 2.73 8.38 1.02 2.94 2.07 5.93 3.16 8.99 1.09 3.06 2.21 6.12 3.37 9.2 1.16 3.08 2.28 6.11 3.38 9.09 2.48-6 4.87-12.05 7.19-18.14m27.92-4.16c-1.23 2.84-2.39 5.65-3.48 8.42-1.09 2.77-2.16 5.6-3.2 8.49h13c-1.04-2.89-2.07-5.72-3.09-8.49-1.02-2.77-2.09-5.57-3.23-8.42m25.15 35.45c-1.13-.09-2.21-.14-3.23-.14h-6.04c-1.02 0-2.03.05-3.02.14-.76-2.32-1.54-4.69-2.34-7.1-.81-2.42-1.66-4.83-2.56-7.25-1.52-.05-3.03-.08-4.55-.11s-3.03-.03-4.55-.03c-1.23 0-2.46.01-3.69.03-1.23.02-2.46.06-3.7.11-.95 2.42-1.82 4.83-2.63 7.25-.81 2.41-1.54 4.78-2.2 7.1-.57-.09-1.13-.14-1.67-.14h-3.38c-.57 0-1.19.05-1.85.14.57-1.23 1.32-2.93 2.27-5.12a382.7 382.7 0 0 0 3.12-7.39c1.14-2.75 2.36-5.69 3.66-8.85 1.3-3.15 2.6-6.33 3.91-9.56 1.3-3.22 2.58-6.39 3.84-9.52 1.25-3.13 2.4-6.04 3.45-8.74.47.1.92.18 1.35.25s.88.11 1.35.11c.47 0 .92-.03 1.35-.11.43-.07.88-.15 1.35-.25 1.51 4.03 3.13 8.34 4.87 12.93 1.73 4.6 3.47 9.11 5.22 13.53 1.75 4.43 3.46 8.63 5.12 12.61 1.66 4 3.18 7.36 4.55 10.11m-9.04-44.58c0-2.81 2.21-5.08 4.96-5.08 2.74 0 4.94 2.28 4.94 5.08 0 2.85-2.21 5.13-4.94 5.13-2.75-.01-4.96-2.29-4.96-5.13zm.86 0c0 2.41 1.79 4.34 4.1 4.34 2.31 0 4.09-1.94 4.09-4.34 0-2.36-1.78-4.3-4.09-4.3-2.3-.01-4.1 1.93-4.1 4.3zm2.31-2.84h2.12c1 0 1.57.5 1.57 1.35 0 .81-.5 1.34-1.28 1.51.44.8.93 1.55 1.41 2.32l.31.53c-.21-.01-.43-.04-.64-.04-.21 0-.43.03-.64.04l-1.48-2.68h-.26v2.68c-.18-.01-.37-.04-.55-.04-.19 0-.37.03-.56.04v-5.71zm1.11 2.77c.93.07 1.35-.33 1.35-1.2 0-1-.46-1.04-.91-1.04h-.44v2.24z"/></svg>