<?xml version="1.0" standalone="no"?>
<!DOCTYPE svg PUBLIC "-//W3C//DTD SVG 20010904//EN"
 "http://www.w3.org/TR/2001/REC-SVG-20010904/DTD/svg10.dtd">
<svg version="1.0" xmlns="http://www.w3.org/2000/svg"
 width="700.000000pt" height="700.000000pt" viewBox="0 0 700.000000 700.000000"
 preserveAspectRatio="xMidYMid meet">
<metadata>
Created by potrace 1.11, written by Peter Selinger 2001-2013
</metadata>
<g transform="translate(0.000000,700.000000) scale(0.100000,-0.100000)"
fill="#000000" stroke="none">
<path d="M30 3495 l0 -3495 3485 0 3485 0 0 3495 0 3495 -3485 0 -3485 0 0
-3495z m4280 2295 l0 -180 -645 0 -645 0 0 -630 0 -630 -645 0 -645 0 0 -705
0 -705 603 -2 602 -3 3 -672 2 -673 673 -2 672 -3 0 -180 0 -180 -857 -3 -858
-2 0 680 0 680 -595 0 -595 0 0 1060 0 1060 640 0 640 0 0 635 0 635 825 0
825 0 0 -180z m1310 -1370 l0 -200 -640 0 -640 0 0 200 0 200 640 0 640 0 0
-200z m0 -805 l0 -195 -640 0 -640 0 0 195 0 195 640 0 640 0 0 -195z m0 -800
l0 -195 -640 0 -640 0 0 195 0 195 640 0 640 0 0 -195z"/>
</g>
</svg>
