<?xml version="1.0" encoding="utf-8"?>
<!-- Generator: Adobe Illustrator 23.0.1, SVG Export Plug-In . SVG Version: 6.00 Build 0)  -->
<svg version="1.1" id="Layer_1" xmlns="http://www.w3.org/2000/svg" xmlns:xlink="http://www.w3.org/1999/xlink" x="0px" y="0px"
	 viewBox="0 0 291.33 68.53" style="enable-background:new 0 0 291.33 68.53;" xml:space="preserve">
<style type="text/css">
	.st0{fill:#004B8D;}
	.st1{fill:#EE3124;}
	.st2{fill:#FFFFFF;}
</style>
<g>
	<g>
		<g>
			<g>
				<rect class="st0" width="48.03" height="68.53"/>
			</g>
			<g>
				<g>
					<rect x="35.39" y="23.32" class="st1" width="12.64" height="3.93"/>
				</g>
				<g>
					<rect x="35.39" y="31.18" class="st1" width="12.64" height="3.93"/>
				</g>
				<g>
					<rect x="35.39" y="39.05" class="st1" width="12.64" height="3.93"/>
				</g>
			</g>
			<g>
				<polygon class="st2" points="34.83,56.46 18.21,56.46 18.21,43.22 6.46,43.22 6.46,22.5 19.07,22.5 19.07,10.11 35.11,10.11 
					35.11,13.56 22.51,13.56 22.51,25.94 9.9,25.94 9.9,39.77 21.65,39.77 21.65,53.02 34.83,53.02 34.83,56.46 				"/>
			</g>
			<g>
				<g>
					<path class="st0" d="M74.41,19.1c-0.1-3.05-0.24-6.12-0.43-9.2c0.8,0.1,1.68,0.18,2.63,0.25c0.95,0.07,2.01,0.11,3.2,0.11
						c1.18,0,2.25-0.03,3.2-0.11c0.95-0.07,1.82-0.15,2.63-0.25c-0.19,3.08-0.33,6.14-0.43,9.2c-0.1,3.05-0.14,6.55-0.14,10.48v9.66
						c0,3.93,0.05,7.42,0.14,10.48c0.1,3.05,0.24,6.05,0.43,8.99c-0.81-0.1-1.68-0.14-2.63-0.14h-3.2h-3.2
						c-0.95,0-1.82,0.04-2.63,0.14c0.19-2.94,0.33-5.93,0.43-8.99c0.1-3.06,0.14-6.55,0.14-10.48v-9.66
						C74.56,25.64,74.51,22.15,74.41,19.1"/>
				</g>
				<g>
					<path class="st0" d="M98.43,15.79c-0.1-2.22-0.17-4.19-0.21-5.9c1.33,0.24,2.39,0.36,3.2,0.36c0.8,0,1.87-0.12,3.2-0.36
						c5.16,5.73,10.27,11.37,15.31,16.91c5.04,5.54,10.22,11.18,15.52,16.91v-6.18v-6.89c0-2.32-0.01-4.61-0.04-6.85
						c-0.02-2.25-0.05-4.32-0.07-6.22c-0.02-1.89-0.07-3.53-0.14-4.9c-0.07-1.37-0.15-2.29-0.25-2.77c1.33,0.24,2.39,0.36,3.2,0.36
						c0.81,0,1.87-0.12,3.2-0.36c-0.24,4.31-0.43,8.21-0.57,11.69c-0.14,3.48-0.26,6.76-0.35,9.84c-0.1,3.08-0.16,6.12-0.18,9.13
						c-0.03,3.01-0.03,6.22-0.03,9.63v8.52c-0.95-0.1-1.92-0.14-2.91-0.14c-1.04,0-1.97,0.04-2.77,0.14
						c-9.76-11.37-20.1-22.8-31.05-34.31c-0.05,1.37-0.08,2.75-0.11,4.12c-0.02,1.37-0.04,2.77-0.04,4.19v8.24
						c0,2.84,0.01,5.26,0.04,7.25c0.02,1.99,0.06,3.67,0.11,5.04c0.05,1.38,0.09,2.5,0.14,3.38c0.05,0.88,0.09,1.57,0.14,2.1
						c-0.57-0.1-1.14-0.14-1.71-0.14h-1.63c-1.09,0-2.18,0.04-3.27,0.14c0.09-0.38,0.21-1.73,0.36-4.05
						c0.14-2.32,0.29-5.15,0.46-8.49c0.17-3.34,0.31-6.96,0.43-10.87c0.12-3.91,0.18-7.66,0.18-11.26
						C98.57,20.77,98.52,18.02,98.43,15.79"/>
				</g>
				<g>
					<path class="st0" d="M190.79,24.57c-0.76-2.44-1.81-4.51-3.16-6.22c-1.35-1.71-2.98-3.02-4.9-3.94
						c-1.92-0.92-4.01-1.39-6.29-1.39c-2.42,0-4.58,0.58-6.5,1.74c-1.92,1.16-3.54,2.74-4.87,4.73c-1.33,1.99-2.33,4.32-3.02,7
						c-0.69,2.67-1.03,5.53-1.03,8.56c0,3.79,0.4,6.99,1.21,9.59c0.81,2.61,1.89,4.7,3.27,6.29c1.37,1.59,2.96,2.74,4.76,3.44
						c1.8,0.71,3.69,1.07,5.68,1.07c2.13,0,4.17-0.45,6.11-1.35c1.94-0.9,3.63-2.27,5.08-4.12c1.45-1.85,2.6-4.19,3.48-7.04
						c0.88-2.84,1.31-6.2,1.31-10.09C191.92,29.76,191.54,27.01,190.79,24.57 M151.32,24.53c1.3-3.08,3.14-5.78,5.51-8.1
						c2.37-2.32,5.23-4.14,8.6-5.47c3.36-1.33,7.11-1.99,11.23-1.99c3.79,0,7.32,0.52,10.58,1.56c3.27,1.05,6.11,2.61,8.53,4.69
						c2.41,2.08,4.32,4.72,5.72,7.92c1.4,3.2,2.1,6.93,2.1,11.19c0,3.55-0.68,6.87-2.03,9.95c-1.35,3.08-3.22,5.77-5.61,8.06
						c-2.39,2.3-5.25,4.09-8.56,5.36c-3.32,1.28-6.96,1.92-10.94,1.92c-3.74,0-7.26-0.46-10.55-1.38c-3.29-0.93-6.16-2.42-8.6-4.48
						c-2.44-2.06-4.37-4.68-5.79-7.88c-1.42-3.2-2.13-7.02-2.13-11.47C149.37,30.9,150.02,27.61,151.32,24.53"/>
				</g>
				<g>
					<path class="st0" d="M237.39,27.41c2.32-6.08,4.4-11.92,6.25-17.51c1.18,0.24,2.22,0.36,3.12,0.36c0.9,0,1.94-0.12,3.12-0.36
						c-1.18,2.8-2.6,6.16-4.26,10.09c-1.66,3.93-3.39,8.1-5.18,12.5c-1.8,4.41-3.58,8.88-5.33,13.43
						c-1.75,4.55-3.31,8.81-4.69,12.79c-0.95-0.1-1.99-0.14-3.13-0.14c-1.14,0-2.18,0.05-3.12,0.14c-0.71-1.89-1.58-4.19-2.59-6.89
						c-1.02-2.7-2.11-5.56-3.27-8.6c-1.16-3.03-2.38-6.13-3.66-9.31c-1.28-3.17-2.51-6.24-3.69-9.2c-1.19-2.96-2.3-5.72-3.34-8.28
						c-1.04-2.56-1.94-4.73-2.7-6.54c1.09,0.09,2.17,0.18,3.23,0.25c1.06,0.07,2.12,0.11,3.16,0.11c1.04,0,2.08-0.03,3.13-0.11
						c1.04-0.07,2.08-0.16,3.12-0.25c0.81,2.65,1.71,5.45,2.73,8.38c1.02,2.94,2.07,5.93,3.16,8.99c1.09,3.06,2.21,6.12,3.37,9.2
						c1.16,3.08,2.28,6.11,3.38,9.09C232.68,39.55,235.07,33.5,237.39,27.41"/>
				</g>
				<g>
					<path class="st0" d="M265.31,23.25c-1.23,2.84-2.39,5.65-3.48,8.42c-1.09,2.77-2.16,5.6-3.2,8.49h13
						c-1.04-2.89-2.07-5.72-3.09-8.49C267.52,28.9,266.45,26.1,265.31,23.25 M290.46,58.7c-1.13-0.09-2.21-0.14-3.23-0.14h-3.02
						h-3.02c-1.02,0-2.03,0.05-3.02,0.14c-0.76-2.32-1.54-4.69-2.34-7.1c-0.81-2.42-1.66-4.83-2.56-7.25
						c-1.52-0.05-3.03-0.08-4.55-0.11c-1.52-0.03-3.03-0.03-4.55-0.03c-1.23,0-2.46,0.01-3.69,0.03c-1.23,0.02-2.46,0.06-3.7,0.11
						c-0.95,2.42-1.82,4.83-2.63,7.25c-0.81,2.41-1.54,4.78-2.2,7.1c-0.57-0.09-1.13-0.14-1.67-0.14h-1.67h-1.71
						c-0.57,0-1.19,0.05-1.85,0.14c0.57-1.23,1.32-2.93,2.27-5.12c0.95-2.18,1.99-4.64,3.12-7.39c1.14-2.75,2.36-5.69,3.66-8.85
						c1.3-3.15,2.6-6.33,3.91-9.56c1.3-3.22,2.58-6.39,3.84-9.52c1.25-3.13,2.4-6.04,3.45-8.74c0.47,0.1,0.92,0.18,1.35,0.25
						s0.88,0.11,1.35,0.11c0.47,0,0.92-0.03,1.35-0.11c0.43-0.07,0.88-0.15,1.35-0.25c1.51,4.03,3.13,8.34,4.87,12.93
						c1.73,4.6,3.47,9.11,5.22,13.53c1.75,4.43,3.46,8.63,5.12,12.61C287.57,52.59,289.09,55.95,290.46,58.7"/>
				</g>
			</g>
		</g>
		<path class="st0" d="M281.42,14.12c0-2.81,2.21-5.08,4.96-5.08c2.74,0,4.94,2.28,4.94,5.08c0,2.85-2.21,5.13-4.94,5.13
			C283.63,19.24,281.42,16.96,281.42,14.12z M282.28,14.12c0,2.41,1.79,4.34,4.1,4.34c2.31,0,4.09-1.94,4.09-4.34
			c0-2.36-1.78-4.3-4.09-4.3C284.08,9.81,282.28,11.75,282.28,14.12z M284.59,11.28h2.12c1,0,1.57,0.5,1.57,1.35
			c0,0.81-0.5,1.34-1.28,1.51c0.44,0.8,0.93,1.55,1.41,2.32l0.31,0.53c-0.21-0.01-0.43-0.04-0.64-0.04c-0.21,0-0.43,0.03-0.64,0.04
			l-1.48-2.68h-0.26v2.68c-0.18-0.01-0.37-0.04-0.55-0.04c-0.19,0-0.37,0.03-0.56,0.04V11.28z M285.7,14.05
			c0.93,0.07,1.35-0.33,1.35-1.2c0-1-0.46-1.04-0.91-1.04h-0.44V14.05z"/>
	</g>
</g>
</svg>
