<?xml version="1.0" encoding="utf-8"?>
<!-- Generator: Adobe Illustrator 23.0.1, SVG Export Plug-In . SVG Version: 6.00 Build 0)  -->
<svg version="1.1" id="Layer_1" xmlns="http://www.w3.org/2000/svg" xmlns:xlink="http://www.w3.org/1999/xlink" x="0px" y="0px"
	 viewBox="0 0 291.3 68.5" style="enable-background:new 0 0 291.3 68.5;" xml:space="preserve">
<style type="text/css">
	.st0{fill:#004B8D;}
	.st1{fill:#EE3124;}
	.st2{fill:#FFFFFF;}
</style>
<path class="st0" d="M0,0h48v68.5H0V0z"/>
<path class="st1" d="M35.4,23.3H48v3.9H35.4V23.3z M35.4,31.2H48v3.9H35.4V31.2z M35.4,39H48V43H35.4V39z"/>
<path class="st2" d="M34.8,56.5H18.2V43.2H6.5V22.5h12.6V10.1h16v3.4H22.5v12.4H9.9v13.8h11.8V53h13.2C34.8,53,34.8,56.5,34.8,56.5z
	"/>
<path class="st2" d="M74.4,19.1c-0.1-3-0.2-6.1-0.4-9.2c0.8,0.1,1.7,0.2,2.6,0.2s2,0.1,3.2,0.1c1.2,0,2.2,0,3.2-0.1
	c0.9-0.1,1.8-0.1,2.6-0.2c-0.2,3.1-0.3,6.1-0.4,9.2c-0.1,3-0.1,6.6-0.1,10.5v9.7c0,3.9,0.1,7.4,0.1,10.5c0.1,3,0.2,6,0.4,9
	c-0.8-0.1-1.7-0.1-2.6-0.1h-6.4c-0.9,0-1.8,0-2.6,0.1c0.2-2.9,0.3-5.9,0.4-9c0.1-3.1,0.1-6.5,0.1-10.5v-9.7
	C74.6,25.6,74.5,22.2,74.4,19.1 M98.4,15.8c-0.1-2.2-0.2-4.2-0.2-5.9c1.3,0.2,2.4,0.4,3.2,0.4c0.8,0,1.9-0.1,3.2-0.4
	c5.2,5.7,10.3,11.4,15.3,16.9s10.2,11.2,15.5,16.9V30.6c0-2.3,0-4.6,0-6.9c0-2.2-0.1-4.3-0.1-6.2c0-1.9-0.1-3.5-0.1-4.9
	c-0.1-1.4-0.1-2.3-0.2-2.8c1.3,0.2,2.4,0.4,3.2,0.4s1.9-0.1,3.2-0.4c-0.2,4.3-0.4,8.2-0.6,11.7c-0.1,3.5-0.3,6.8-0.4,9.8
	c-0.1,3.1-0.2,6.1-0.2,9.1c0,3,0,6.2,0,9.6v8.5c-0.9-0.1-1.9-0.1-2.9-0.1c-1,0-2,0-2.8,0.1c-9.8-11.4-20.1-22.8-31.1-34.3
	c-0.1,1.4-0.1,2.8-0.1,4.1c0,1.4,0,2.8,0,4.2v8.2c0,2.8,0,5.3,0,7.2c0,2,0.1,3.7,0.1,5c0.1,1.4,0.1,2.5,0.1,3.4s0.1,1.6,0.1,2.1
	c-0.6-0.1-1.1-0.1-1.7-0.1h-1.6c-1.1,0-2.2,0-3.3,0.1c0.1-0.4,0.2-1.7,0.4-4c0.1-2.3,0.3-5.2,0.5-8.5c0.2-3.3,0.3-7,0.4-10.9
	s0.2-7.7,0.2-11.3C98.6,20.8,98.5,18,98.4,15.8 M190.8,24.6c-0.8-2.4-1.8-4.5-3.2-6.2s-3-3-4.9-3.9s-4-1.4-6.3-1.4
	c-2.4,0-4.6,0.6-6.5,1.7s-3.5,2.7-4.9,4.7s-2.3,4.3-3,7c-0.7,2.7-1,5.5-1,8.6c0,3.8,0.4,7,1.2,9.6c0.8,2.6,1.9,4.7,3.3,6.3
	c1.4,1.6,3,2.7,4.8,3.4c1.8,0.7,3.7,1.1,5.7,1.1c2.1,0,4.2-0.5,6.1-1.3c1.9-0.9,3.6-2.3,5.1-4.1s2.6-4.2,3.5-7
	c0.9-2.8,1.3-6.2,1.3-10.1C191.9,29.8,191.5,27,190.8,24.6 M151.3,24.5c1.3-3.1,3.1-5.8,5.5-8.1s5.2-4.1,8.6-5.5
	c3.4-1.3,7.1-2,11.2-2c3.8,0,7.3,0.5,10.6,1.6c3.3,1.1,6.1,2.6,8.5,4.7c2.4,2.1,4.3,4.7,5.7,7.9s2.1,6.9,2.1,11.2
	c0,3.5-0.7,6.9-2,10s-3.2,5.8-5.6,8.1c-2.4,2.3-5.2,4.1-8.6,5.4c-3.3,1.3-7,1.9-10.9,1.9c-3.7,0-7.3-0.5-10.6-1.4
	c-3.3-0.9-6.2-2.4-8.6-4.5s-4.4-4.7-5.8-7.9s-2.1-7-2.1-11.5C149.4,30.9,150,27.6,151.3,24.5 M237.4,27.4c2.3-6.1,4.4-11.9,6.2-17.5
	c1.2,0.2,2.2,0.4,3.1,0.4s1.9-0.1,3.1-0.4c-1.2,2.8-2.6,6.2-4.3,10.1c-1.7,3.9-3.4,8.1-5.2,12.5c-1.8,4.4-3.6,8.9-5.3,13.4
	s-3.3,8.8-4.7,12.8c-0.9-0.1-2-0.1-3.1-0.1s-2.2,0-3.1,0.1c-0.7-1.9-1.6-4.2-2.6-6.9c-1-2.7-2.1-5.6-3.3-8.6c-1.2-3-2.4-6.1-3.7-9.3
	c-1.3-3.2-2.5-6.2-3.7-9.2c-1.2-3-2.3-5.7-3.3-8.3s-1.9-4.7-2.7-6.5c1.1,0.1,2.2,0.2,3.2,0.2s2.1,0.1,3.2,0.1s2.1,0,3.1-0.1
	c1-0.1,2.1-0.2,3.1-0.2c0.8,2.7,1.7,5.4,2.7,8.4c1,2.9,2.1,5.9,3.2,9s2.2,6.1,3.4,9.2c1.2,3.1,2.3,6.1,3.4,9.1
	C232.7,39.5,235.1,33.5,237.4,27.4 M265.3,23.2c-1.2,2.8-2.4,5.6-3.5,8.4s-2.2,5.6-3.2,8.5h13c-1-2.9-2.1-5.7-3.1-8.5
	S266.4,26.1,265.3,23.2 M290.5,58.7c-1.1-0.1-2.2-0.1-3.2-0.1h-6c-1,0-2,0-3,0.1c-0.8-2.3-1.5-4.7-2.3-7.1c-0.8-2.4-1.7-4.8-2.6-7.2
	c-1.5,0-3-0.1-4.5-0.1s-3,0-4.5,0c-1.2,0-2.5,0-3.7,0s-2.5,0.1-3.7,0.1c-0.9,2.4-1.8,4.8-2.6,7.2c-0.8,2.4-1.5,4.8-2.2,7.1
	c-0.6-0.1-1.1-0.1-1.7-0.1h-3.4c-0.6,0-1.2,0-1.9,0.1c0.6-1.2,1.3-2.9,2.3-5.1c1.1-2.5,2.1-4.9,3.1-7.4c1.1-2.8,2.4-5.7,3.7-8.8
	c1.3-3.2,2.6-6.3,3.9-9.6c1.3-3.2,2.6-6.4,3.8-9.5c1.2-3.1,2.4-6,3.5-8.7c0.5,0.1,0.9,0.2,1.4,0.2s0.9,0.1,1.4,0.1s0.9,0,1.4-0.1
	c0.4-0.1,0.9-0.1,1.4-0.2c1.5,4,3.1,8.3,4.9,12.9c1.7,4.6,3.5,9.1,5.2,13.5c1.8,4.4,3.5,8.6,5.1,12.6
	C287.6,52.6,289.1,56,290.5,58.7 M281.4,14.1c0-2.8,2.2-5.1,5-5.1c2.7,0,4.9,2.3,4.9,5.1c0,2.9-2.2,5.1-4.9,5.1
	C283.6,19.2,281.4,17,281.4,14.1z M282.3,14.1c0,2.4,1.8,4.3,4.1,4.3s4.1-1.9,4.1-4.3c0-2.4-1.8-4.3-4.1-4.3
	C284.1,9.8,282.3,11.8,282.3,14.1z M284.6,11.3h2.1c1,0,1.6,0.5,1.6,1.4c0,0.8-0.5,1.3-1.3,1.5c0.4,0.8,0.9,1.6,1.4,2.3l0.3,0.5
	c-0.2,0-0.4,0-0.6,0c-0.2,0-0.4,0-0.6,0l-1.5-2.7h-0.3V17c-0.2,0-0.4,0-0.5,0c-0.2,0-0.4,0-0.6,0L284.6,11.3L284.6,11.3z
	 M285.7,14.1c0.9,0.1,1.4-0.3,1.4-1.2c0-1-0.5-1-0.9-1h-0.4V14.1z"/>
</svg>
